<svg id="Layer_1" height="512" viewBox="0 0 512 512" width="512" xmlns="http://www.w3.org/2000/svg" data-name="Layer 1"><path d="m461.5 305.52a17.03 17.03 0 1 1 -17.01 17.03 17.018 17.018 0 0 1 17.01-17.03z" fill="#d4e1f4"/><path d="m412.65 357.4a35.664 35.664 0 0 0 14.04 8.68 35.959 35.959 0 0 0 -22.72 22.74 35.974 35.974 0 0 0 -22.72-22.74 35.929 35.929 0 0 0 22.72-22.73 36 36 0 0 0 8.68 14.05z" fill="#9cc9f5"/><path d="m359.45 446.83a14.3 14.3 0 0 1 -2.23 7.69 15.862 15.862 0 0 0 -1.64 12.68 18.371 18.371 0 1 1 -30.39-8.41 16.537 16.537 0 0 0 5.49-11.9 15.292 15.292 0 0 1 .13-2.01 14.385 14.385 0 0 1 28.64 1.95z" fill="#d4e1f4"/><path d="m304.9 51.52a17.03 17.03 0 1 1 -17.01 17.03 17.018 17.018 0 0 1 17.01-17.03z" fill="#d4e1f4"/><path d="m259.023 129.75-5.64-1.55-.1-.01-3.2 33.06 27.76-1.07.06-.1c.43-11.61-7.69-27.25-18.88-30.33z" fill="#ffd39f"/><path d="m242.017 86.81a12.83 12.83 0 0 0 -1.74-.12c-8.05 0-14.62 7.59-15.54 15.87l-.08-.01-7.97 57.89-.02.06 33.5.5 3.2-33.06 2.36-24.16a15.89 15.89 0 0 0 -13.71-16.97z" fill="#ffd8b7"/><path d="m214.451 53.23a16.98 16.98 0 0 0 -19.444 14.18l-12.757 99.14 34.289-.05 12.182-94.66a16.908 16.908 0 0 0 -14.27-18.61z" fill="#ffd39f"/><path d="m180.8 71.33c-.1-.03-.2-.07-.3-.1a18.072 18.072 0 0 0 -23.06 14.42l-13.82 101.55 39.63-20.65 9.07-78.05a17.379 17.379 0 0 0 -11.52-17.17z" fill="#ffd8b7"/><path d="m176.6 375.46a18.427 18.427 0 0 1 -4.72 11.68l-32.81 43.97-.22-.16-1.46-66.93c7.43 6.01 19.7 10.4 39.21 11.44z" fill="#ffd39f"/><path d="m118.41 243.26-.26.05c-11.72-12.93-32.44-31.17-44.44-40.01-12.19-8.98-38.71-12.42-40.18 5.18-.44 5.21 4.39 10.25 11.47 18.24l14.54 19.02a76.518 76.518 0 0 1 13.15 26.81l5.16 19.48c2.79 10.11 30.18 46.38 55.16 67.63l41.29-14.48z" fill="#ffd39f"/><path d="m115.85 10.5a17.03 17.03 0 1 1 -17.01 17.03 17.011 17.011 0 0 1 17.01-17.03z" fill="#d4e1f4"/><path d="m114.47 111.21a14.373 14.373 0 0 1 -2.22 7.68 15.825 15.825 0 0 0 -1.65 12.68 18.373 18.373 0 1 1 -30.39-8.4 16.577 16.577 0 0 0 5.49-11.91 15.292 15.292 0 0 1 .13-2.01 14.385 14.385 0 0 1 28.64 1.96z" fill="#d4e1f4"/><path d="m68.76 52.34a35.966 35.966 0 0 0 14.04 8.68 35.959 35.959 0 0 0 -22.72 22.74 35.974 35.974 0 0 0 -22.72-22.74 35.929 35.929 0 0 0 22.72-22.73 36 36 0 0 0 8.68 14.05z" fill="#9cc9f5"/><path d="m278.51 159.93a46.589 46.589 0 0 0 -19.52-5.84 49.27 49.27 0 0 0 -7.6.11 47.3 47.3 0 0 0 -5.74.89 1.956 1.956 0 0 1 -2.33-1.66c-1.76-13-10.41-23.31-21.35-26.46a25.123 25.123 0 0 0 -8.97-.95c-15.57 1.16-27.04 18.13-25.76 35.61 10.56-.6 23.28 11.7 27.45 22.33 7.59 19.37 10.46 60.44 7.89 74.61l.01.01c3.69-4.17 8.1-7.81 14.08-12.42 8.66-6.67 17.19-14.02 23.34-20.97l39.13-44.17a51.025 51.025 0 0 0 -20.63-21.09z" fill="#9cc9f5"/><path d="m180.1 212.3-2.17-23.86c-.99-5.98-1.87-10.77-1.87-14.56 0-2.88.51-5.19 1.87-6.99a86.956 86.956 0 0 0 -34.31 16.31c-14.62 11.43-24.98 27.26-26.17 44.47a59.3 59.3 0 0 0 .96 15.59 61.466 61.466 0 0 0 9.94 23.32c2.42 3.48 1.27 7.96-2.44 10.36-8.98 5.81-14.82 15.26-14.82 25.94 0 10.35 5.49 19.55 14.01 25.4a7.09 7.09 0 0 1 2.96 7.67 27.4 27.4 0 0 0 4.95 23.71 27.8 27.8 0 0 0 4.38 4.36c7.43 6.01 19.7 10.4 39.21 11.44l-5.64-114.22 6-19.24a76.343 76.343 0 0 0 3.14-29.7z" fill="#9cc9f5"/><path d="m419.58 175.59a15.863 15.863 0 0 0 -21.02.6l23.09-28.81a16.876 16.876 0 0 0 -25.93-21.6l-10.98 12.76a18.117 18.117 0 0 0 -29.14-21.25l-56.46 63.73-39.13 44.17c-6.15 6.95-14.68 14.3-23.34 20.97-5.98 4.61-10.39 8.25-14.08 12.42l-.01-.01c2.57-14.17-.3-55.24-7.89-74.61-4.17-10.63-16.89-22.93-27.45-22.33a12.018 12.018 0 0 0 -3.99.92 13.154 13.154 0 0 0 -5.32 4.34c-1.36 1.8-1.87 4.11-1.87 6.99 0 3.79.88 8.58 1.87 14.56l2.17 23.86a76.343 76.343 0 0 1 -3.14 29.7l-6 19.24c-4.14 13.75 2.99 86.94 5.56 111.64l-4.64 14.26-32.81 43.97-2.69 3.61 98.12 66.78 53.87-80.42a43.124 43.124 0 0 1 14.17-16.3c13.41-9.2 35.67-33.81 60.48-76.09 9.76-16.64 19.58-31.28 30.04-46.84l20.45-30a25.091 25.091 0 0 0 -2.19-31.02l-3.67-4.01 14.5-19.55a15.912 15.912 0 0 0 -2.57-21.68z" fill="#ffd8b7"/><path d="m221.953 275.653 20.637-17.073c3.69-4.17 8.1-7.81 14.08-12.42 8.66-6.67 17.19-14.02 23.34-20.97l39.13-44.17 56.46-63.73a18.154 18.154 0 0 1 3.544-3.061 18.075 18.075 0 0 0 -23.544 3.061l-56.46 63.73-39.13 44.17c-4.526 5.114-30.97 27.526-37.177 32.643a99.338 99.338 0 0 1 -.88 17.82z" fill="#eabe9d"/><path d="m196.96 242a76.343 76.343 0 0 0 3.14-29.7l-2.17-23.86c-.99-5.98-1.87-10.77-1.87-14.56 0-2.88.51-5.19 1.87-6.99a15.9 15.9 0 0 1 1.232-1.454c-3.914-2.516-8.062-4.025-11.922-3.806a12.018 12.018 0 0 0 -3.99.92 13.154 13.154 0 0 0 -5.32 4.34c-1.36 1.8-1.87 4.11-1.87 6.99 0 3.79.88 8.58 1.87 14.56l2.17 23.86a76.343 76.343 0 0 1 -3.14 29.7l-6 19.24c-4.14 13.75 2.99 86.94 5.56 111.64l-4.64 14.26-35.5 47.58 11.72 7.98 43.78-55.56 4.64-14.26c-2.57-24.7-9.7-97.89-5.56-111.64z" fill="#eabe9d"/><path d="m221.97 126.97a25.123 25.123 0 0 0 -8.97-.95c-15.57 1.16-27.04 18.13-25.76 35.61 7.327-.416 15.691 5.379 21.52 12.516l-1.52-2.516c-1.28-17.48 10.19-34.45 25.76-35.61a25.243 25.243 0 0 1 2.62-.047 28.426 28.426 0 0 0 -13.65-9.003z" fill="#87b6dd"/><path d="m143.62 183.2c-14.62 11.43-24.98 27.26-26.17 44.47a59.3 59.3 0 0 0 .96 15.59 61.466 61.466 0 0 0 9.94 23.32c2.42 3.48 1.27 7.96-2.44 10.36-8.98 5.81-14.82 15.26-14.82 25.94 0 10.35 5.49 19.55 14.01 25.4a7.09 7.09 0 0 1 2.96 7.67 27.4 27.4 0 0 0 4.95 23.71 27.8 27.8 0 0 0 4.38 4.36c4.3 3.479 10.238 6.409 18.248 8.467a26.866 26.866 0 0 1 -2.628-2.827 27.4 27.4 0 0 1 -4.95-23.71 7.09 7.09 0 0 0 -2.96-7.67c-8.52-5.85-14.01-15.05-14.01-25.4 0-10.68 5.84-20.13 14.82-25.94 3.71-2.4 4.86-6.88 2.44-10.36a61.466 61.466 0 0 1 -9.94-23.32 59.3 59.3 0 0 1 -.96-15.59c1.19-17.21 11.55-33.04 26.17-44.47a87.577 87.577 0 0 1 13.646-8.748 69.423 69.423 0 0 1 -1.206-10.572c0-2.88.51-5.19 1.87-6.99a86.956 86.956 0 0 0 -34.31 16.31z" fill="#87b6dd"/><g fill="#344d6b"><path d="m418.465 255.232a30.956 30.956 0 0 0 -2.715-38.439l-.334-.367 11.552-15.578a21.9 21.9 0 0 0 -12.877-34.442l12.242-15.275a22.86 22.86 0 0 0 -34.5-29.954 24.089 24.089 0 0 0 -22.58-15.988h-.1a24.1 24.1 0 0 0 -18.033 8.12l-51.12 57.697a57.053 57.053 0 0 0 -15.533-14.545 42.763 42.763 0 0 0 -5.8-18.033c-4.485-7.637-10.657-12.862-17.377-14.711l-.863-.238 1.865-19.111c0-.042.008-.084.011-.125a21.907 21.907 0 0 0 -18.903-23.376 19.019 19.019 0 0 0 -9.37 1.12l1.247-9.357c0-.037.009-.073.013-.11a22.855 22.855 0 0 0 -45.207-6.62 22.712 22.712 0 0 0 -7.3-4.232l-.37-.128c-.062-.021-.125-.041-.188-.059a24.1 24.1 0 0 0 -30.713 19.189c-.009.056-.017.111-.025.166l-13.487 99.191c-15.207 12.667-25.319 29.687-26.534 47.225-.015.21-.018.42-.03.63a386.294 386.294 0 0 0 -34.172-29.417c-9.626-7.091-27.183-11.489-38.763-6.231a18.265 18.265 0 0 0 -10.955 15.752c-.62 7.432 4.515 13.211 11.622 21.209l1.194 1.346 14.409 18.845a70.022 70.022 0 0 1 12.116 24.7l5.181 19.534c3.38 12.259 31.737 48.862 56.463 70.107a33.425 33.425 0 0 0 2.917 3.092l1.371 62.639-1.248 1.672a6 6 0 0 0 1.434 8.548l98.117 66.778a6 6 0 0 0 8.361-1.621l53.868-80.424a5.767 5.767 0 0 0 .383-.659 37.174 37.174 0 0 1 12.2-14.024c17.281-11.853 40.557-41.015 62.263-78.01 9.791-16.686 19.531-31.182 29.82-46.5zm-159.236-119.555c5.105 2.046 9.471 8.151 11.723 14.559a51.111 51.111 0 0 0 -11.579-2.131c-.451-.029-.9-.035-1.352-.053zm-.628 24.4c13.009.838 25.875 8.8 33.18 20.2l-36.258 40.928c-5.211 5.883-13 12.869-22.517 20.2-1.24.955-2.407 1.87-3.537 2.77-.031-19.1-3.1-46.859-9.2-62.416-4.085-10.417-15.284-22.532-27.019-25.481 1.065-12.678 9.678-23.5 20.19-24.277 11.629-.86 22.13 8.9 23.927 22.226a7.958 7.958 0 0 0 9.566 6.716 41.854 41.854 0 0 1 11.667-.862zm-27.4-56.869.077.009a13.214 13.214 0 0 1 4.734-8.715 7.733 7.733 0 0 1 5.788-1.742 9.9 9.9 0 0 1 8.534 10.512l-3.822 39.164a37.041 37.041 0 0 0 -17.957-19.336zm-29.429-34.57c.023-.112.044-.225.061-.339a10.864 10.864 0 0 1 21.542 2.808l-6.516 48.92a29.963 29.963 0 0 0 -23.67 9.136zm-38.4 13.91a12.136 12.136 0 0 1 5.528-8.248 11.937 11.937 0 0 1 9.774-1.352l.14.049a11.447 11.447 0 0 1 7.443 12.114l-8.624 73.763a19.6 19.6 0 0 0 -3.013 2.649 91.822 91.822 0 0 0 -23.252 9.268zm-41.111 251.864a32.319 32.319 0 0 0 -.981 5.858c-19.177-19.94-35.821-43.228-37.626-49.779l-5.166-19.477a81.964 81.964 0 0 0 -14.183-28.914l-14.541-19.022c-.088-.115-.179-.226-.275-.334l-1.349-1.519c-4.539-5.109-8.826-9.934-8.634-12.241a6.326 6.326 0 0 1 3.959-5.824c6.342-2.879 19.309-.467 26.683 4.966 11.409 8.406 31.092 25.661 42.824 38.426a67.589 67.589 0 0 0 10.45 23.448.857.857 0 0 1 .181.712 2.055 2.055 0 0 1 -.954 1.193c-10.994 7.117-17.558 18.7-17.558 30.976 0 12.039 6.053 23.1 16.608 30.351a1.112 1.112 0 0 1 .562 1.18zm11.012 10.215a20.519 20.519 0 0 1 .59-7.148 13 13 0 0 0 -5.37-14.142c-7.246-4.977-11.4-12.434-11.4-20.459 0-8.192 4.515-16.007 12.079-20.9a13.846 13.846 0 0 0 6.206-8.943 12.838 12.838 0 0 0 -2.1-9.877 54.4 54.4 0 0 1 -9.841-35.074c.842-12.164 7.14-24.526 17.733-34.808a80.522 80.522 0 0 1 28.936-17.884 106.734 106.734 0 0 0 1.569 12.043l.294 1.776 2.158 23.637a70.078 70.078 0 0 1 -2.9 27.373l-6.015 19.292c-4.043 13.424 1.088 72.372 4.87 109.425-23.167-2.43-35.546-10.59-36.809-24.311zm10.351 30.013c7.767 3.439 16.705 5.305 25.4 6.235a12.376 12.376 0 0 1 -1.606 2.251c-.124.139-.242.282-.353.431l-22.584 30.274zm214.222-48.99c-24.559 41.857-46.426 65.767-58.7 74.186a49.211 49.211 0 0 0 -15.968 18.208l-50.3 75.1-87.94-59.852 31.59-42.346a24.491 24.491 0 0 0 5.96-18.682c-6.035-58.024-8.305-100.922-5.8-109.233l6-19.236a82.027 82.027 0 0 0 3.4-32.036l-2.188-23.859c-.013-.143-.032-.286-.055-.428l-.332-2.006c-1.121-6.746-2.18-13.118-.789-14.967a6.3 6.3 0 0 1 6.427-2.809c6.9.942 16.6 9.912 19.947 18.457 6.85 17.469 9.743 55.493 7.806 69.87a71.749 71.749 0 0 0 -10 16.475 6 6 0 1 0 10.905 5.009c6-13.065 10.941-17.667 22.516-26.583 10.255-7.9 18.389-15.218 24.177-21.751l95.589-107.9a11.936 11.936 0 0 1 9.048-4.077h.056a11.941 11.941 0 0 1 9.069 4.157 12.133 12.133 0 0 1 1.524 13.752l-.518.6a6 6 0 0 0 -.977 1.575l-88.372 109.7a6 6 0 0 0 9.344 7.528l88.645-110.03a24.53 24.53 0 0 0 1.6-2.273l10.759-12.505a10.875 10.875 0 0 1 16.7 13.932l-22.9 28.576a22.293 22.293 0 0 0 -1.779 1.959 6.037 6.037 0 0 0 -.714 1.151l-73.955 92.276a6 6 0 1 0 9.364 7.5l75.957-94.775a9.847 9.847 0 0 1 12.792-.122 9.919 9.919 0 0 1 1.6 13.5l-79.766 107.56a6 6 0 1 0 9.639 7.149l60.865-82.073a18.988 18.988 0 0 1 .478 22.145l-20.471 30.028c-9.959 14.821-20.257 30.147-30.233 47.15z"/><path d="m120.471 111.206a20.385 20.385 0 0 0 -40.588-2.746 20.822 20.822 0 0 0 -.183 2.826c.014 3.536-2.267 6.242-3.628 7.54a24.4 24.4 0 0 0 15.862 42.028q.488.019.973.019a24.4 24.4 0 0 0 23.478-30.9 9.817 9.817 0 0 1 .93-7.869 20.332 20.332 0 0 0 3.156-10.898zm-13.292 4.474a21.819 21.819 0 0 0 -2.358 17.5 12.393 12.393 0 0 1 -12.421 15.683 12.573 12.573 0 0 1 -11.872-11.952 12.253 12.253 0 0 1 3.83-9.4 22.415 22.415 0 0 0 7.342-16.273 8.395 8.395 0 0 1 7.46-8.391 8.722 8.722 0 0 1 .924-.049 8.293 8.293 0 0 1 5.6 2.15 8.434 8.434 0 0 1 2.785 6.258 8.346 8.346 0 0 1 -1.29 4.474z"/><path d="m358.7 431.659a20.378 20.378 0 0 0 -33.834 12.428 20.813 20.813 0 0 0 -.184 2.826c.014 3.535-2.267 6.242-3.628 7.54a24.4 24.4 0 0 0 15.862 42.028q.489.02.973.019a24.4 24.4 0 0 0 23.478-30.9 9.821 9.821 0 0 1 .93-7.869 20.411 20.411 0 0 0 -3.6-26.071zm-6.539 19.649a21.817 21.817 0 0 0 -2.358 17.5 12.392 12.392 0 0 1 -12.424 15.686 12.571 12.571 0 0 1 -11.879-11.956 12.249 12.249 0 0 1 3.829-9.4 22.411 22.411 0 0 0 7.345-16.271 8.887 8.887 0 0 1 .078-1.191 8.528 8.528 0 0 1 7.383-7.2 8.718 8.718 0 0 1 .923-.049 8.3 8.3 0 0 1 5.6 2.15 8.414 8.414 0 0 1 1.492 10.733z"/><path d="m115.85 50.561a23.031 23.031 0 1 0 -23-23.03 23.044 23.044 0 0 0 23 23.03zm0-34.061a11.031 11.031 0 1 1 -11 11.031 11.03 11.03 0 0 1 11-11.031z"/><path d="m461.5 299.521a23.031 23.031 0 1 0 23 23.031 23.044 23.044 0 0 0 -23-23.031zm0 34.062a11.031 11.031 0 1 1 11-11.031 11.03 11.03 0 0 1 -11 11.031z"/><path d="m304.9 91.583a23.031 23.031 0 1 0 -23-23.031 23.043 23.043 0 0 0 23 23.031zm0-34.062a11.031 11.031 0 1 1 -11 11.031 11.03 11.03 0 0 1 11-11.031z"/><path d="m35.459 66.715a30.081 30.081 0 0 1 18.928 18.942 6 6 0 0 0 11.385 0 30.081 30.081 0 0 1 18.928-18.942 6 6 0 0 0 0-11.383 30.082 30.082 0 0 1 -18.928-18.943 6 6 0 0 0 -11.385 0 30.082 30.082 0 0 1 -18.928 18.943 6 6 0 0 0 0 11.383zm24.621-15.4a42.344 42.344 0 0 0 9.7 9.705 42.368 42.368 0 0 0 -9.7 9.706 42.392 42.392 0 0 0 -9.7-9.706 42.368 42.368 0 0 0 9.7-9.702z"/><path d="m428.59 360.392a30.081 30.081 0 0 1 -18.928-18.942 6 6 0 0 0 -11.385 0 30.081 30.081 0 0 1 -18.928 18.942 6 6 0 0 0 0 11.383 30.083 30.083 0 0 1 18.928 18.942 6 6 0 0 0 11.385 0 30.083 30.083 0 0 1 18.928-18.942 6 6 0 0 0 0-11.383zm-24.621 15.4a42.368 42.368 0 0 0 -9.7-9.706 42.344 42.344 0 0 0 9.7-9.705 42.368 42.368 0 0 0 9.7 9.705 42.392 42.392 0 0 0 -9.7 9.703z"/><path d="m392.248 318.386a6.5 6.5 0 1 0 9.032-1.691 6.509 6.509 0 0 0 -9.032 1.691z"/><path d="m441.148 257.664a6 6 0 0 0 8.342-1.557l6.088-8.881a6 6 0 1 0 -9.9-6.786l-6.089 8.882a6 6 0 0 0 1.559 8.342z"/><path d="m435.239 266.285a6 6 0 0 0 -8.342 1.556l-24.753 36.11a6 6 0 1 0 9.9 6.785l24.754-36.11a6 6 0 0 0 -1.559-8.341z"/></g></svg>