<svg id="Capa_1" enable-background="new 0 0 512.093 512.093" height="512" viewBox="0 0 512.093 512.093" width="512" xmlns="http://www.w3.org/2000/svg"><g><path d="m375.577 504.594h-239.06c-10.936 0-19.801-8.865-19.801-19.801v-98.319c0-54.935 44.534-99.469 99.469-99.469h79.725c54.935 0 99.469 44.534 99.469 99.469v98.319c-.001 10.935-8.866 19.801-19.802 19.801z" fill="#78d0b1"/><path d="m295.909 287.005h-29.227c54.935 0 99.469 44.534 99.469 99.469v98.319c0 10.936-8.865 19.801-19.801 19.801h29.227c10.936 0 19.801-8.865 19.801-19.801v-98.319c0-54.935-44.534-99.469-99.469-99.469z" fill="#61aab7"/><path d="m307.396 35.931 7.249-13.07c4.8-8.655-4.162-18.446-13.206-14.428l-48.049 21.342c-9.114 4.048-18.975 6.14-28.948 6.14h-19.046c-32.835 0-59.454 26.618-59.454 59.454v95.179h220.208v-95.181c.001-32.601-26.243-59.06-58.754-59.436z" fill="#544f57"/><path d="m307.396 35.931 7.249-13.07c4.8-8.655-4.162-18.446-13.206-14.428l-8.46 3.758c1.974 2.961 2.48 6.922.4 10.671l-.044.079c-3.259 5.876.038 13.13 6.557 14.759 25.846 6.457 44.993 29.822 44.993 57.669v95.179h21.266v-95.181c0-32.601-26.244-59.06-58.755-59.436z" fill="#454045"/><path d="m256.047 386.617 49.586-122.83h-99.172z" fill="#544f57"/><path d="m256.047 302.295c-49.329 0-89.318-39.989-89.318-89.318v-81.318c59.545 39.793 119.09 39.793 178.636 0v81.318c-.001 49.329-39.99 89.318-89.318 89.318z" fill="#f1d0a5"/><path d="m325.099 143.66c-52.79 27.274-105.58 23.277-158.37-12.001v16.995c47.134 31.499 94.268 38.06 141.402 19.691 8.156-3.178 16.968 2.732 16.968 11.485v33.147c0 45.902-34.628 83.71-79.185 88.742 3.326.376 6.706.576 10.133.576 49.329 0 89.318-39.989 89.318-89.318v-81.318c-6.761 4.518-13.659 8.588-20.266 12.001z" fill="#f1b986"/><g fill="#e2a770"><path d="m166.729 216.977h-7.405c-11.217 0-20.309-9.093-20.309-20.309v-4.213c0-11.217 9.093-20.309 20.309-20.309h7.405z"/><path d="m345.364 216.977h7.405c11.217 0 20.309-9.093 20.309-20.309v-4.213c0-11.217-9.093-20.309-20.309-20.309h-7.405z"/></g><g><circle cx="326.076" cy="419.845" fill="#f6f1f1" r="22.392"/><path d="m348.468 419.845c0-12.367-10.025-22.392-22.392-22.392-2.914 0-5.695.563-8.248 1.575 8.283 3.285 14.143 11.364 14.143 20.817s-5.86 17.531-14.143 20.817c2.553 1.013 5.334 1.575 8.248 1.575 12.367 0 22.392-10.025 22.392-22.392z" fill="#eadfda"/></g><g><path d="m296.694 194.457c-4.143 0-7.5 3.357-7.5 7.5v9.069c0 4.143 3.357 7.5 7.5 7.5s7.5-3.357 7.5-7.5v-9.069c0-4.143-3.358-7.5-7.5-7.5z"/><path d="m207.899 201.957v9.069c0 4.143 3.358 7.5 7.5 7.5s7.5-3.357 7.5-7.5v-9.069c0-4.143-3.358-7.5-7.5-7.5s-7.5 3.357-7.5 7.5z"/><path d="m256.047 423.498c-4.142 0-7.5 3.357-7.5 7.5v12.766h-12.766c-4.142 0-7.5 3.357-7.5 7.5s3.358 7.5 7.5 7.5h12.766v12.766c0 4.143 3.358 7.5 7.5 7.5s7.5-3.357 7.5-7.5v-12.766h12.765c4.143 0 7.5-3.357 7.5-7.5s-3.357-7.5-7.5-7.5h-12.765v-12.766c0-4.143-3.358-7.5-7.5-7.5z"/><path d="m268.393 241.058c-8.538 6.48-16.154 6.48-24.693 0-3.3-2.504-8.004-1.858-10.508 1.44-2.504 3.3-1.859 8.004 1.44 10.509 7.005 5.315 14.21 7.974 21.415 7.974s14.41-2.658 21.415-7.974c3.3-2.505 3.944-7.209 1.44-10.509s-7.209-3.945-10.509-1.44z"/><path d="m374.838 314.279c-14.071-15.372-32.106-26.174-51.944-31.33 15.844-15.143 26.565-35.597 29.284-58.472h.591c15.334 0 27.81-12.476 27.81-27.81v-4.213c0-7.021-2.621-13.438-6.929-18.337v-78.75c0-32.399-23.406-59.706-54.197-65.712l1.75-3.156c3.777-6.811 2.82-14.923-2.438-20.667-5.257-5.744-13.255-7.413-20.371-4.254l-48.05 21.342c-8.208 3.646-16.923 5.494-25.903 5.494h-19.045c-10.738 0-21.434 2.62-30.931 7.577-3.672 1.916-5.095 6.446-3.179 10.119 1.916 3.672 6.448 5.097 10.119 3.178 7.468-3.897 15.54-5.874 23.99-5.874h19.045c11.091 0 21.855-2.283 31.992-6.785l48.049-21.342c1.615-.719 2.709.115 3.218.672.511.559 1.24 1.724.386 3.265l-7.249 13.07c-1.281 2.31-1.253 5.123.074 7.406s3.757 3.7 6.397 3.73c28.31.328 51.342 23.626 51.342 51.937v69.91c-1.867-.404-3.802-.622-5.786-.629v-32.988c0-2.768-1.524-5.31-3.965-6.614-2.438-1.305-5.399-1.159-7.702.379-6.488 4.336-13.089 8.243-19.618 11.612-3.682 1.9-5.125 6.424-3.226 10.104 1.9 3.682 6.426 5.123 10.104 3.226 3.129-1.615 6.271-3.343 9.406-5.173v67.783c0 45.114-36.703 81.817-81.818 81.817-45.114 0-81.817-36.703-81.817-81.817 0-22.644 0-45.171 0-67.782 41.391 24.135 83.349 29.933 124.899 17.22 3.961-1.212 6.189-5.405 4.978-9.366s-5.402-6.189-9.366-4.978c-20.445 6.255-41.161 7.552-61.571 3.856-20.583-3.728-41.534-12.645-62.272-26.503-2.301-1.538-5.262-1.685-7.702-.379-2.441 1.305-3.965 3.847-3.965 6.614v32.988c-1.984.007-3.919.226-5.786.629v-69.91c0-10.153 2.939-19.996 8.5-28.466 2.273-3.462 1.31-8.112-2.153-10.386-3.461-2.272-8.111-1.309-10.386 2.153-7.171 10.921-10.961 23.611-10.961 36.698v78.75c-4.308 4.899-6.929 11.316-6.929 18.338v4.213c0 15.334 12.475 27.81 27.81 27.81h.591c2.72 22.875 13.44 43.329 29.284 58.472-19.838 5.156-37.873 15.957-51.944 31.33-18.082 19.756-28.04 45.395-28.04 72.194v98.319c0 15.054 12.247 27.301 27.301 27.301h23.468c4.142 0 7.5-3.357 7.5-7.5s-3.358-7.5-7.5-7.5h-23.468c-6.783 0-12.301-5.519-12.301-12.301v-98.319c0-23.041 8.561-45.084 24.104-62.066 11.358-12.41 25.723-21.34 41.544-26.056-6.352 10.861-9.924 24.237-9.924 38.359v55.256c-15.881 3.449-27.815 17.606-27.815 34.505v40.846c0 6.963 5.664 12.627 12.626 12.627h9.952c4.142 0 7.5-3.357 7.5-7.5s-3.358-7.5-7.5-7.5h-7.578v-38.473c0-11.201 9.113-20.314 20.315-20.314s20.315 9.113 20.315 20.314v38.473h-7.579c-4.142 0-7.5 3.357-7.5 7.5s3.358 7.5 7.5 7.5h9.952c6.962 0 12.626-5.664 12.626-12.627v-40.846c0-16.899-11.934-31.056-27.815-34.505v-55.255c0-21.061 8.797-33.51 14.115-39.11 1.241.692 2.499 1.358 3.773 1.996l36.264 89.829c1.145 2.836 3.896 4.692 6.955 4.692 3.058 0 5.81-1.856 6.955-4.692l36.264-89.83c1.709-.856 3.392-1.757 5.041-2.709 9.784 8.655 14.269 26.273 14.269 39.824v54.197c-12.864 3.336-22.392 15.046-22.392 28.939 0 16.482 13.409 29.892 29.892 29.892s29.893-13.409 29.893-29.892c0-13.893-9.528-25.603-22.393-28.939v-54.197c0-11.37-2.528-25.721-8.913-37.601 14.86 4.885 28.337 13.528 39.111 25.299 15.544 16.982 24.104 39.025 24.104 62.066v98.319c0 6.782-5.519 12.301-12.302 12.301h-185.602c-4.142 0-7.5 3.357-7.5 7.5s3.358 7.5 7.5 7.5h185.605c15.055 0 27.302-12.247 27.302-27.301v-98.319c0-26.801-9.958-52.439-28.04-72.195zm-9.259-121.824v4.213c0 7.032-5.695 12.759-12.715 12.81v-29.832c7.02.05 12.715 5.777 12.715 12.809zm-219.065 4.213v-4.213c0-7.032 5.695-12.759 12.715-12.81v29.832c-7.02-.051-12.715-5.777-12.715-12.809zm109.533 169.914-24.156-59.838c7.724 1.991 15.819 3.051 24.156 3.051s16.432-1.059 24.156-3.05zm84.921 53.263c0 8.211-6.681 14.892-14.893 14.892-8.211 0-14.892-6.681-14.892-14.892 0-8.212 6.681-14.893 14.892-14.893 8.212.001 14.893 6.681 14.893 14.893z"/></g></g></svg>