<?xml version="1.0" ?><svg viewBox="0 0 512 512" xmlns="http://www.w3.org/2000/svg"><g id="Flat"><circle cx="244" cy="164" r="140" style="fill:#2f4054"/><rect height="16.00036" style="fill:#262d43" transform="translate(0.47588 225.1488) rotate(-45.00247)" width="67.88225" x="238.05887" y="103.99982"/><path d="M496,496l-28.85109-40.39153A171.0005,171.0005,0,0,0,328.00009,384H183.99991A171.0005,171.0005,0,0,0,44.85109,455.60847L16,496Z" style="fill:#8ed0eb"/><path d="M328,208V384l-72,56-72-56V367.64A88.01157,88.01157,0,0,1,104,280V168a163.89388,163.89388,0,0,1,115.87988-48H264l19.72,19.72A96.63283,96.63283,0,0,1,312,208Z" style="fill:#f8d2b3"/><path d="M232,368v16H192q-4.03491,0-8-.3V367.64c2.64014.24,5.3.36,8,.36Z" style="fill:#f6c598"/><path d="M148.001,244.002a8.0055,8.0055,0,0,1-7.59082-10.53174l20-60a8.00034,8.00034,0,0,1,15.17968,5.05958l-20,60A8.00467,8.00467,0,0,1,148.001,244.002Z" style="fill:#f6c598"/><circle cx="136" cy="192" r="8" style="fill:#2f4054"/><circle cx="208" cy="192" r="8" style="fill:#2f4054"/><path d="M144,176H128a8,8,0,0,1,0-16h16a8,8,0,0,1,0,16Z" style="fill:#2f4054"/><path d="M224,176H192a8,8,0,0,1,0-16h32a8,8,0,0,1,0,16Z" style="fill:#2f4054"/><path d="M249.37793,320.25488l-7.15625-14.31054L309.27344,272.419a8.00454,8.00454,0,0,1,5.15429-.688,13.73549,13.73549,0,0,0,13.69434-5.22608A79.88957,79.88957,0,0,0,344,218.86865v-3.55322a42.451,42.451,0,0,0-7.15137-23.62109,17.28,17.28,0,0,0-26.59668-2.63282c-5.53222,5.53223-10.87793,11.38623-15.88867,17.39893l-50.43457,60.522-12.291-10.24316,50.43457-60.522c5.31835-6.38233,10.99316-12.59668,16.86621-18.46973a33.27957,33.27957,0,0,1,51.22265,5.07178A58.4004,58.4004,0,0,1,360,215.31543v3.55322a95.99182,95.99182,0,0,1-19.07812,57.23682A29.883,29.883,0,0,1,317.13184,288c-.9834,0-1.96875-.04932-2.94922-.147Z" style="fill:#8ed0eb"/><path d="M104,240l48-16,104,16,24,56-48,72H192a88,88,0,0,1-88-88Z" style="fill:#349d66"/><path d="M200,344H168a8,8,0,0,1,0-16h32a8,8,0,0,1,0,16Z" style="fill:#008b55"/><path d="M127.99609,272.8667a8.00136,8.00136,0,0,1-2.19238-15.69482l27.94238-7.97657a7.99547,7.99547,0,0,1,3.57227-.188l36.05762,6.29395a8.00008,8.00008,0,0,1-2.752,15.76172l-34.25-5.97852-26.17773,7.47315A8.00659,8.00659,0,0,1,127.99609,272.8667Z" style="fill:#008b55"/><path d="M197.74805,312H136a8,8,0,0,1,0-16h61.74805a8,8,0,1,1,0,16Z" style="fill:#008b55"/><path d="M296,192l8.5959-8.5959A25.27916,25.27916,0,0,1,322.471,176h0a25.27917,25.27917,0,0,1,21.03354,11.25681l0,0A50.58329,50.58329,0,0,1,352,215.31538v3.55321a87.39421,87.39421,0,0,1-17.47885,52.43654l0,0A21.7371,21.7371,0,0,1,317.13145,280h0a21.73705,21.73705,0,0,1-9.72112-2.29485L296,272Z" style="fill:#f8d2b3"/></g></svg>