<?xml version="1.0" ?><svg id="_x33_0" style="enable-background:new 0 0 64 64;" version="1.1" viewBox="0 0 64 64" xml:space="preserve" xmlns="http://www.w3.org/2000/svg" xmlns:xlink="http://www.w3.org/1999/xlink"><g><g><path d="M31.8,12.6L30.2,11.4l2.563-3.418C30.413,4.85,26.734,3,22.789,3h-5.578c-3.945,0-7.624,1.85-9.974,4.982L9.8,11.4    L8.2,12.6L4.775,8.034l0.393-0.589C7.859,3.409,12.361,1,17.211,1h5.578c4.85,0,9.352,2.409,12.043,6.445l0.393,0.589L31.8,12.6z"/></g><path d="M23.396,7h-6.792C11.308,7,7,11.309,7,16.604c0,1.035,0.166,2.057,0.493,3.037l0.466,1.398   l0.146,1.215C8.438,20.96,9.602,20,11,20h1c0-2.209,1.791-4,4-4h4c1.379,0,2.594-0.698,3.313-1.759l0,0.001l2.092,0.784   C26.966,15.612,28,17.105,28,18.772V20h1c1.398,0,2.562,0.96,2.895,2.254l0.146-1.215l0.466-1.398   C32.834,18.66,33,17.639,33,16.604C33,11.309,28.692,7,23.396,7z" style="fill:#F0BC5E;"/><path d="M7.944,37.651c1.003-0.744,2.111-1.364,3.311-1.826l2.691-1.035   c1.279-0.492,2.218-1.605,2.486-2.949l0.158-0.79h0.031c-0.094-0.056-0.194-0.1-0.285-0.161c-1.805-1.203-3.114-2.96-3.797-4.957   L12.545,26H11c-1.148,0-2.133-0.652-2.637-1.598l0.109,0.908l-1.973,2.467C5.532,28.984,5,30.501,5,32.048   C5,34.282,6.123,36.383,7.944,37.651z" style="fill:#F0BC5E;"/><path d="M33.501,27.776l-1.973-2.467l0.109-0.908C31.133,25.348,30.148,26,29,26h-1.545l0.006-0.067   c-0.683,1.998-1.993,3.754-3.797,4.957c-0.091,0.061-0.191,0.105-0.285,0.161h0.031l0.158,0.79   c0.269,1.344,1.207,2.457,2.486,2.949l2.691,1.035c0.163,0.063,0.317,0.142,0.477,0.211l4.834-0.477l0.246-0.5   C34.758,34.127,35,33.086,35,32.048C35,30.501,34.468,28.984,33.501,27.776z" style="fill:#F0BC5E;"/><path d="M16,19c-0.552,0-1,0.448-1,1s0.448,1,1,1s1-0.448,1-1S16.552,19,16,19L16,19z"/><path d="M24,19c-0.552,0-1,0.448-1,1s0.448,1,1,1s1-0.448,1-1S24.552,19,24,19L24,19z"/><g><path d="M20,29c-1.615,0-3.067-0.897-3.789-2.342l-0.105-0.211l1.789-0.895L18,25.764C18.381,26.526,19.147,27,20,27    s1.619-0.474,2-1.236l0.105-0.211l1.789,0.895l-0.105,0.211C23.067,28.103,21.615,29,20,29z"/></g><g><path d="M35.917,44.393c-0.822-2.226-2.236-4.185-4.09-5.664l1.247-1.562c2.139,1.706,3.771,3.966,4.719,6.533L35.917,44.393z"/></g><g><path d="M39.08,53l-0.405-5.258c-0.021-0.273-0.05-0.547-0.085-0.817l-1.983,0.26c0.031,0.235,0.056,0.472,0.074,0.711L36.92,51    h-4.073C32.948,50.386,33,49.761,33,49.142c0-2.253-0.661-4.435-1.91-6.309l-0.257-0.387l-1.665,1.107l0.258,0.388    c1.03,1.545,1.575,3.344,1.575,5.2c0,0.514-0.043,1.032-0.127,1.541L29.153,61H21V43.72l6.851-2.283l-1.217-1.218    c1.433-0.921,2.676-2.126,3.642-3.537l-0.318-0.218l0.492-0.979c-0.438-0.221-0.891-0.421-1.345-0.595l-2.69-1.035    c-0.965-0.371-1.662-1.197-1.865-2.211l-0.03-0.151c1.614-1.159,2.848-2.716,3.607-4.495H29c2.206,0,4-1.794,4-4s-1.794-4-4-4    v-0.228c0-2.072-1.304-3.954-3.245-4.683l-1.051-0.395C24.896,13.166,25,12.595,25,12V9h-2v3c0,1.654-1.346,3-3,3h-4    c-2.414,0-4.434,1.721-4.899,4H11c-2.206,0-4,1.794-4,4s1.794,4,4,4h0.874c0.759,1.779,1.992,3.335,3.607,4.495l-0.03,0.151    c-0.203,1.014-0.9,1.84-1.865,2.211l-2.69,1.035c-5.373,2.066-9.13,7.11-9.571,12.85L0.92,53H3v10h34V53H39.08z M20,33    c0.935,0,1.845-0.189,2.706-0.518c0.244,0.825,0.688,1.558,1.289,2.145c-1.746,1.313-3.106,3.042-3.995,5.013    c-0.889-1.971-2.248-3.699-3.995-5.013c0.6-0.587,1.044-1.32,1.289-2.145C18.155,32.811,19.065,33,20,33z M27.845,36.55    c-0.92,1.054-2.037,1.928-3.292,2.555l-1.242,0.62l0.837,0.837l-2.724,0.909c0.785-2.336,2.333-4.336,4.427-5.687L27.845,36.55z     M31,23c0,1.103-0.897,2-2,2h-0.247C28.904,24.279,29,23.542,29,22.789V21C30.103,21,31,21.897,31,23z M11,25    c-1.103,0-2-0.897-2-2s0.897-2,2-2v1.789c0,0.753,0.096,1.49,0.247,2.211H11z M13,22.789V20c0-1.654,1.346-3,3-3h4    c1.43,0,2.722-0.604,3.634-1.569l1.419,0.532C26.218,16.399,27,17.528,27,18.772v4.017c0,2.928-1.455,5.646-3.891,7.27    c-1.847,1.232-4.372,1.232-6.219,0C14.455,28.435,13,25.717,13,22.789z M14.148,35.784c2.094,1.352,3.641,3.352,4.426,5.687    l-2.723-0.908l0.837-0.837l-1.242-0.62c-1.254-0.627-2.372-1.501-3.292-2.555L14.148,35.784z M3.319,47.895    c0.344-4.473,3.017-8.453,6.938-10.512c0.876,1.108,1.922,2.075,3.109,2.837l-1.217,1.218l6.864,2.287L19.001,61h-8.154    l-1.72-10.317C9.043,50.174,9,49.655,9,49.142c0-1.856,0.544-3.655,1.575-5.201l0.257-0.387l-1.665-1.107l-0.257,0.386    C7.661,44.707,7,46.889,7,49.142C7,49.761,7.052,50.386,7.153,51H3.08L3.319,47.895z M5,53h2.486l1.333,8H5V53z M35,61h-3.82    l1.333-8H35V61z"/><rect height="2" width="2" x="15" y="47"/><rect height="2" width="2" x="15" y="51"/><rect height="2" width="2" x="15" y="55"/><rect height="2" width="6" x="23" y="47"/></g><g><rect height="4" width="2" x="45" y="24"/></g><path d="M46,25c-1.654,0-3-1.346-3-3s1.346-3,3-3s3,1.346,3,3S47.654,25,46,25z" style="fill:#F0BC5E;"/><g><rect height="4" transform="matrix(0.707 -0.7072 0.7072 0.707 -9.0531 36.0041)" width="2" x="37.929" y="26.929"/></g><path d="M36.101,29.101c-0.801,0-1.555-0.312-2.122-0.879c-1.169-1.17-1.169-3.072,0-4.242   c1.133-1.133,3.109-1.133,4.242,0l0,0h0c1.169,1.17,1.169,3.072,0,4.242C37.655,28.788,36.902,29.101,36.101,29.101z" style="fill:#F0BC5E;"/><g><rect height="2" width="4" x="34" y="35"/></g><path d="M32,39c-1.654,0-3-1.346-3-3s1.346-3,3-3s3,1.346,3,3S33.654,39,32,39z" style="fill:#F0BC5E;"/><g><rect height="2" transform="matrix(0.7071 -0.7071 0.7071 0.7071 -19.054 40.1422)" width="4" x="36.929" y="42.071"/></g><path d="M36.101,48.899c-0.801,0-1.555-0.312-2.122-0.879c-1.169-1.17-1.169-3.072,0-4.242l0,0h0l0,0   c1.133-1.133,3.109-1.133,4.243,0c1.169,1.17,1.169,3.072,0,4.242C37.655,48.587,36.902,48.899,36.101,48.899z" style="fill:#F0BC5E;"/><g><rect height="4" width="2" x="45" y="44"/></g><path d="M46,53c-1.654,0-3-1.346-3-3s1.346-3,3-3s3,1.346,3,3S47.654,53,46,53z" style="fill:#F0BC5E;"/><g><rect height="4" transform="matrix(0.707 -0.7072 0.7072 0.707 -14.9112 50.1481)" width="2" x="52.071" y="41.071"/></g><path d="M55.899,48.899c-0.801,0-1.555-0.312-2.121-0.879l0,0h0c-1.169-1.17-1.169-3.072,0-4.242   c1.133-1.133,3.109-1.133,4.243,0c1.169,1.17,1.169,3.072,0,4.242C57.454,48.587,56.701,48.899,55.899,48.899z" style="fill:#F0BC5E;"/><g><rect height="2" width="4" x="54" y="35"/></g><path d="M60,39c-1.654,0-3-1.346-3-3s1.346-3,3-3s3,1.346,3,3S61.654,39,60,39z" style="fill:#F0BC5E;"/><g><rect height="2" transform="matrix(0.7071 -0.7071 0.7071 0.7071 -4.9115 45.9999)" width="4" x="51.071" y="27.929"/></g><path d="M55.899,29.101c-0.801,0-1.555-0.312-2.122-0.879c-1.169-1.17-1.169-3.072,0-4.242   c1.133-1.133,3.109-1.133,4.243,0c1.169,1.17,1.169,3.072,0,4.242l0,0h0l0,0C57.454,28.788,56.701,29.101,55.899,29.101z" style="fill:#F0BC5E;"/><g><rect height="3" width="2" x="55" y="7"/></g><g><rect height="3" transform="matrix(0.7073 -0.7069 0.7069 0.7073 8.1066 39.7992)" width="2" x="51.111" y="8.611"/></g><g><rect height="2" width="3" x="49" y="13"/></g><g><rect height="2" transform="matrix(0.7071 -0.7071 0.7071 0.7071 2.6134 42.0875)" width="3" x="50.611" y="16.889"/></g><g><rect height="3" width="2" x="55" y="18"/></g><g><rect height="3" transform="matrix(0.7073 -0.7069 0.7069 0.7073 4.8847 47.575)" width="2" x="58.889" y="16.389"/></g><g><rect height="2" width="3" x="60" y="13"/></g><g><rect height="2" transform="matrix(0.7071 -0.7071 0.7071 0.7071 10.3917 45.3094)" width="3" x="58.389" y="9.111"/></g><g><rect height="3" width="2" x="42" y="1"/></g><g><rect height="3" width="2" x="42" y="8"/></g><g><rect height="2" width="3" x="45" y="5"/></g><g><rect height="2" width="3" x="38" y="5"/></g><path d="M56,19c-2.757,0-5-2.243-5-5s2.243-5,5-5s5,2.243,5,5S58.757,19,56,19z" style="fill:#F0BC5E;"/><path d="M43,9c-1.654,0-3-1.346-3-3s1.346-3,3-3s3,1.346,3,3S44.654,9,43,9z" style="fill:#F0BC5E;"/><path d="M46,27c-4.962,0-9,4.037-9,9s4.038,9,9,9s9-4.037,9-9S50.962,27,46,27z M44,40c-1.105,0-2-0.895-2-2   c0-1.105,0.895-2,2-2s2,0.895,2,2C46,39.105,45.105,40,44,40z M48,34c-1.105,0-2-0.895-2-2c0-1.105,0.895-2,2-2s2,0.895,2,2   C50,33.105,49.105,34,48,34z" style="fill:#F0BC5E;"/><g><path d="M44,41c-1.654,0-3-1.346-3-3s1.346-3,3-3s3,1.346,3,3S45.654,41,44,41z M44,37c-0.551,0-1,0.448-1,1s0.449,1,1,1    s1-0.448,1-1S44.551,37,44,37z"/></g><g><path d="M48,35c-1.654,0-3-1.346-3-3s1.346-3,3-3s3,1.346,3,3S49.654,35,48,35z M48,31c-0.551,0-1,0.448-1,1s0.449,1,1,1    s1-0.448,1-1S48.551,31,48,31z"/></g></g></svg>