<svg height="512" viewBox="0 0 512 512" width="512" xmlns="http://www.w3.org/2000/svg"><g id="No_Touching" data-name="No Touching"><g id="Flat"><path d="m88 160h-48v-96h80v32a40.071 40.071 0 0 1 -32 39.2z" fill="#ffdecf"/><path d="m120 88.626v-24.626h-80v65.682a123.227 123.227 0 0 1 80-41.056z" fill="#ffcdbe"/><path d="m48 136c-6.69 0-48-13.717-48-56a64.072 64.072 0 0 1 64-64c16.79 0 38.425 14.262 50.343 2.343a8 8 0 0 1 11.314 0c15.287 15.287 14.383 30.836 10.932 41.187a49.74 49.74 0 0 1 -10.932 18.127c-4.246 4.243-7.309 1.594-53.657 2.343a16.019 16.019 0 0 0 -16 16c-.958 29.644 2.3 34.294-3.218 38.414a8 8 0 0 1 -4.782 1.586z" fill="#495268"/><path d="m104 272h-104v-98.526c0-25.924 20.636-45.474 48-45.474 24.452 0 56 36.753 56 75.789z" fill="#f9c05d"/><path d="m104 464h-88v-109.63a102.919 102.919 0 0 1 -16-55.214v-27.156h104z" fill="#e3e2e8"/><path d="m16 383.929v80.071h88v-120.865a123.673 123.673 0 0 1 -88 40.794z" fill="#d2d1db"/><path d="m72 312a8 8 0 0 0 -8 8v136h16v-136a8 8 0 0 0 -8-8z" fill="#bfbecc"/><path d="m120 496h-64a8 8 0 0 1 -8-8v-32a8 8 0 0 1 8-8h32a40.045 40.045 0 0 1 40 40 8 8 0 0 1 -8 8z" fill="#3b465e"/><path d="m88 496h-56a16.019 16.019 0 0 1 -16-16v-24a8 8 0 0 1 8-8h32a40.045 40.045 0 0 1 40 40 8 8 0 0 1 -8 8z" fill="#495268"/><path d="m0 238.936v33.064h104v-68.21a83.978 83.978 0 0 0 -9.3-37.4 120.125 120.125 0 0 1 -94.7 72.546z" fill="#f4b04e"/><circle cx="32" cy="304" fill="#f9f8ff" r="16"/><circle cx="40" cy="336" fill="#f9f8ff" r="8"/><path d="m77.494 454.292a71.582 71.582 0 0 1 -51.7 40.455 15.926 15.926 0 0 0 6.206 1.253h56a8 8 0 0 0 8-8 40 40 0 0 0 -18.506-33.708z" fill="#3b465e"/><path d="m240 160h48v-96h-80v32a40.071 40.071 0 0 0 32 39.2z" fill="#ffdecf"/><path d="m208 88.626v-24.626h80v65.682a123.227 123.227 0 0 0 -80-41.056z" fill="#ffcdbe"/><circle cx="48" cy="48" fill="#667184" r="16"/><circle cx="32" cy="80" fill="#667184" r="8"/><path d="m224 464h88v-109.63a102.919 102.919 0 0 0 16-55.214v-27.156h-104z" fill="#e3e2e8"/><path d="m224 383.929v80.071h88v-120.865a123.673 123.673 0 0 1 -88 40.794z" fill="#d2d1db"/><path d="m256 312a8 8 0 0 1 8 8v136h-16v-136a8 8 0 0 1 8-8z" fill="#bfbecc"/><path d="m208 496h64a8 8 0 0 0 8-8v-32a8 8 0 0 0 -8-8h-32a40.045 40.045 0 0 0 -40 40 8 8 0 0 0 8 8z" fill="#2f3b51"/><path d="m240 496h56a16.019 16.019 0 0 0 16-16v-24a8 8 0 0 0 -8-8h-32a40.045 40.045 0 0 0 -40 40 8 8 0 0 0 8 8z" fill="#495268"/><path d="m250.506 454.292a71.582 71.582 0 0 0 51.7 40.455 15.926 15.926 0 0 1 -6.206 1.253h-56a8 8 0 0 1 -8-8 40 40 0 0 1 18.506-33.708z" fill="#3b465e"/><path d="m224 272c.053-24.258.155-31.8.155-31.8s-2.5-53.786 15.845-81.882c15.609-23.91 34.189-30.318 40-30.318 27.364 0 48 19.55 48 45.474v98.526z" fill="#87ba50"/><path d="m224.1 247.618c-.032 4.683-.073 12.405-.1 24.382h104v-94.537a43.028 43.028 0 0 0 -1.048-9.463c-16.802 40.309-55.471 70.842-102.852 79.618z" fill="#73b03e"/><path d="m159.673 276.2a37.926 37.926 0 0 1 -6.279-30.893c5.355-23.1 26.48-27.538 33.861-32.709a8 8 0 0 1 10.29 2.482c30.575 46.074 36.005 30.352-27.84 63.578a8 8 0 0 1 -10.032-2.458z" fill="#ffcdbe"/><path d="m204.947 253.536c-19.009-28.6-23.205-29.63-21.731-35.738 1.425-5.909 6.323-5.554 24.806-16.173l36.739-47.973a24.029 24.029 0 0 1 33.533-4.932 23.986 23.986 0 0 1 4.985 33.572c-47.49 63.555-45.344 62.442-48.567 64.044l-19.651 9.771a8 8 0 0 1 -10.114-2.571z" fill="#a6d96b"/><path d="m162.261 279.5c-3.55 0-1.428-.111-68.566-33.162a7.988 7.988 0 0 1 -2.864-2.4c-38.69-54.156-39.963-37.987 1.269-66.953a8 8 0 0 1 10.789 1.792l17.5 22.848 35.393 18.708c31.49 16.646 19.872 59.167 6.479 59.167z" fill="#ffdecf"/><circle cx="384" cy="368" fill="#f27c6d" r="128"/><path d="m442.058 253.942a127.972 127.972 0 0 1 -172.116 172.116 127.989 127.989 0 1 0 172.116-172.116z" fill="#ed6464"/><path d="m395.313 368 50.344-50.343a8 8 0 0 0 -11.314-11.314l-50.343 50.344-50.343-50.344a8 8 0 0 0 -11.314 11.314l50.344 50.343-50.344 50.343a8.01 8.01 0 0 0 5.657 13.657c6.022 0 3.758-1.67 56-52.687 52.245 51.019 49.98 52.687 56 52.687a8.01 8.01 0 0 0 5.657-13.657z" fill="#fff"/><circle cx="372" cy="268" fill="#ffa596" r="20"/><circle cx="412" cy="284" fill="#ffa596" r="12"/><path d="m56 96a15.9 15.9 0 0 1 .857-5.124 115.783 115.783 0 0 1 -44.257 24.472c12.737 15.052 31.127 20.652 35.4 20.652a8 8 0 0 0 4.782-1.586c5.523-4.12 2.26-8.77 3.218-38.414z" fill="#3b465e"/><path d="m125.657 18.343a8 8 0 0 0 -11.314 0c-5.167 5.168-12.163 5.411-19.8 4.031a115.568 115.568 0 0 1 -27.67 58.483 15.9 15.9 0 0 1 5.127-.857c46.348-.749 49.411 1.9 53.657-2.343a49.74 49.74 0 0 0 10.932-18.127c3.451-10.351 4.355-25.9-10.932-41.187z" fill="#3b465e"/><path d="m282.283 135.667c75.638-22.52 49.049-119.667-18.283-119.667-53.784 0-77.173 64-56 64h48a16.019 16.019 0 0 1 16 16c.959 29.644-2.305 34.294 3.218 38.414a8 8 0 0 0 7.065 1.253z" fill="#495268"/><path d="m227.078 27.684a107.972 107.972 0 0 0 100.408 60.254c-2.865 20.364-16.853 39.289-45.2 47.729a8 8 0 0 1 -7.065-1.253c-5.521-4.12-2.262-8.769-3.221-38.414a16.019 16.019 0 0 0 -16-16h-48c-15.4 0-7.219-33.852 19.078-52.316z" fill="#3b465e"/><circle cx="272" cy="40" fill="#667184" r="16"/><circle cx="296" cy="64" fill="#667184" r="8"/><path d="m69.472 209.689a7.987 7.987 0 0 1 -6.432-3.235l-17.912-24.161a24 24 0 0 1 38.517-28.643l19.244 25.127a8 8 0 0 1 -1.914 11.521l-27.075 18.047a7.963 7.963 0 0 1 -4.428 1.344z" fill="#ffd071"/></g></g></svg>