<?xml version='1.0' encoding='iso-8859-1'?>
<svg version="1.1" xmlns="http://www.w3.org/2000/svg" viewBox="0 0 490 490" xmlns:xlink="http://www.w3.org/1999/xlink" enable-background="new 0 0 490 490">
  <g>
    <path d="m296,5.3c-0.3-0.4-0.6-0.8-1-1.1l-.9,.7c-15.8-3.2-32.3-4.9-49.1-4.9-135.5,0-245,109.5-245,245s109.5,245 245,245 245-109.5 245-245c0-118-83-216.3-194-239.7zm128,104.6c26.4,35 42.8,77.9 44.9,124.7h-84.4c-0.9-34-6.5-67.4-16.4-99.3 19.2-6.8 37.9-15.3 55.9-25.4zm-13.4-16.2c-15.9,8.6-32.3,15.9-49.1,21.8-10.9-29.2-25.6-57-43.8-82.7 35.9,12.3 67.8,33.5 92.9,60.9zm-155.2-72.6c10,0.5 19.9,1.6 29.5,3.3 24,29.6 43,62.6 56.3,97.6-27.9,8-56.7,12.5-85.8,13.4l0-114.3v7.10543e-15zm0,135.1c31.6-0.9 62.6-5.7 92.6-14.5 9.3,29.9 14.7,61.1 15.6,92.8h-108.2v-78.3zm-20.8-135.1v114.3c-29.2-0.9-58.2-5.3-86.2-13.3 13.2-35.1 32.1-68.1 56.6-97.7 9.7-1.7 19.6-2.8 29.6-3.3zm-5.2,190.5l-86.6,22.9h-16.4c0.9-31.8 6.1-63 15.3-92.9 30,8.9 61.2,13.7 92.9,14.6v55.3c-1.7-0.4-3.4-0.3-5.2,0.1zm5.2,43.8v32.1c-8.5-6.2-14.8-11.6-18.8-15.4l9.7-16.7h9.1zm-62.2-222.6c-18.3,25.7-33,53.6-43.9,82.9-17-6-33.4-13.3-49.2-21.9 25.1-27.5 57-48.7 93.1-61zm-106.4,77.1c18,10.1 36.7,18.5 55.9,25.4-10,31.9-15.5,65.3-16.4,99.3h-84.4c2.1-46.8 18.5-89.8 44.9-124.7zm4,275.3c-28.7-35.8-46.6-80.7-48.8-129.8h59.7c-0.8,2-1,4.2-0.6,6.3l28.6,105.7c-13.4,5-26.4,11-38.9,17.8zm13.8,15.7c10-5.2 20.3-9.5 30.5-13.2l4.5,16.8c0.7,5.2 11.3,12.6 18.8,2.1l2.3-3.9c9.1,19 19.6,37.1 31.5,54.1-33.6-11.6-63.5-30.9-87.6-55.9zm150.8,68c-10.4-0.5-20.6-1.6-30.5-3.5-21-26-38.1-54.4-51.2-85.1l7.7-13.3c23.8,13.1 48.7,22.5 74,28.1v73.8zm-73-125.9c-2.7-1.8-10.6-2.6-14.6,3.1l-15.6,27.1-28.1-107.4 107.4-28.1-17.7,30.2c-2.1,4.2-2.1,9.4 1,12.5 3.1,2.1 65.7,73 185.6,73 9.4,0 18.8,0 28.1-1-28.2,13.5-68.9,27.1-115.8,27.1-44.8,0-88.6-12.5-130.3-36.5zm93.8,125.8v-70c12.1,1.7 24.3,2.5 36.5,2.5 12.9,0 25.4-0.9 37.3-2.6-11.5,23.5-25.9,46.2-42.9,66.6-10.1,1.9-20.4,3.1-30.9,3.5zm63.1-11.9c13.9-19.8 25.8-40.8 35.5-62.6 8.1-1.9 15.8-4 23.1-6.4 9.7,3.8 19.5,8.3 29,13.2-24.2,24.9-54.1,44.2-87.6,55.8zm101.6-71.8c-5-2.7-10-5.3-15.1-7.7 12.2-5.2 22.8-10.7 31.6-15.8-5,8.2-10.5,16-16.5,23.5zm34.7-60.9c-25.7,6.6-50.5,9.4-74.3,9.4-54.5,0-96.5-16.2-125.1-32.6v-45.6h213.5c-1.1,24.2-6,47.3-14.1,68.8z"/>
  </g>
</svg>
